<svg width="100" height="42" viewBox="0 0 100 42" fill="none" xmlns="http://www.w3.org/2000/svg">
<path d="M42.3953 32.7513V27.6118H43.0496V29.8686H43.0733L44.8655 27.6118H45.6051L43.7418 29.9303L45.7141 32.7466H44.8749L43.0733 30.063H43.0496V32.7466H42.3953V32.7513Z" fill="white"/>
<path d="M48.0563 29.1572H48.6395V32.002C48.6395 32.2485 48.6537 32.4998 48.6774 32.7511H48.0563V32.3196H48.0373C47.843 32.6468 47.5016 32.827 47.127 32.827C46.5012 32.827 46.1598 32.514 46.1598 31.9024V29.162H46.743V31.6511C46.743 32.0873 46.9421 32.3765 47.3546 32.3765C47.6675 32.3765 48.0563 32.1395 48.0563 31.5421V29.1572Z" fill="white"/>
<path d="M50.3463 32.7513H49.7632V27.6118H50.3463V32.7513Z" fill="white"/>
<path d="M51.5079 29.1571V28.4696L52.0911 28.2041V29.1571H52.8734V29.598H52.0911V31.798C52.0911 32.0255 52.0911 32.3195 52.6221 32.3195C52.6648 32.3195 52.7596 32.3053 52.8876 32.2911V32.7415C52.6932 32.7557 52.5036 32.7984 52.3092 32.7984C51.7545 32.7984 51.5032 32.5708 51.5032 32.1583V29.6028H50.9105V29.1618H51.5032L51.5079 29.1571Z" fill="white"/>
<path d="M55.4289 29.1572H56.0121V32.002C56.0121 32.2485 56.0263 32.4998 56.0453 32.7511H55.4242V32.3196H55.4052C55.2156 32.6468 54.8742 32.827 54.4949 32.827C53.8691 32.827 53.5277 32.514 53.5277 31.9024V29.162H54.1109V31.6511C54.1109 32.0873 54.31 32.3765 54.7225 32.3765C55.0354 32.3765 55.4289 32.1395 55.4289 31.5421V29.1572Z" fill="white"/>
<path d="M57.7521 29.698H57.7664C58.0082 29.1481 58.3069 29.0864 58.8758 29.0864V29.6933C58.7668 29.6791 58.6672 29.6554 58.5629 29.6554C57.9133 29.6554 57.7521 30.1485 57.7521 30.6321V32.7514H57.169V29.1575H57.7521V29.698Z" fill="white"/>
<path d="M60.6633 32.8225C59.8857 32.8225 59.4021 32.4812 59.4258 31.6562H60.0896C60.0896 31.8648 60.0943 32.3484 60.687 32.3484C61.0378 32.3484 61.3033 32.173 61.3033 31.7984C61.3033 31.1584 59.5111 31.1441 59.5111 30.0679C59.5111 29.6886 59.7387 29.0864 60.7486 29.0864C61.3887 29.0864 61.9339 29.3946 61.8865 30.1058H61.2417C61.2464 29.7265 61.0473 29.5274 60.6775 29.5274C60.3646 29.5274 60.1228 29.698 60.1228 30.011C60.1228 30.6463 61.915 30.6321 61.915 31.7273C61.915 32.5191 61.3745 32.8225 60.6633 32.8225Z" fill="white"/>
<path d="M62.9154 29.1571V28.4696L63.4985 28.2041V29.1571H64.2808V29.598H63.4985V31.798C63.4985 32.0255 63.4985 32.3195 64.0296 32.3195C64.0722 32.3195 64.1671 32.3053 64.2951 32.2911V32.7415C64.1007 32.7557 63.911 32.7984 63.7214 32.7984C63.1666 32.7984 62.9154 32.5708 62.9154 32.1583V29.6028H62.3227V29.1618H62.9154V29.1571Z" fill="white"/>
<path d="M66.7653 32.2299H66.7511C66.5709 32.6424 66.2959 32.8225 65.8455 32.8225C65.0821 32.8225 64.864 32.3294 64.864 31.642C64.864 30.5515 65.9308 30.5041 66.7511 30.523C66.7653 30.0442 66.77 29.5274 66.1442 29.5274C65.7554 29.5274 65.5468 29.7881 65.58 30.1674H64.9446C64.9731 29.3614 65.3998 29.0864 66.1631 29.0864C67.0877 29.0864 67.3295 29.5653 67.3295 30.1674V31.898C67.3295 32.1825 67.3579 32.4764 67.4006 32.7514H66.7605V32.2299H66.7653ZM65.4472 31.6846C65.4472 32.0355 65.6179 32.3484 66.0114 32.3484C66.367 32.3484 66.8079 32.1303 66.7511 30.9687C66.1963 30.9782 65.4472 30.926 65.4472 31.6894V31.6846Z" fill="white"/>
<path d="M70.3307 27.6118H70.9138V32.7513H70.3307V32.3246H70.3164C70.1173 32.6612 69.866 32.8224 69.4915 32.8224C68.9178 32.8224 68.3299 32.5949 68.3299 31.016C68.3299 30.1199 68.3583 29.0863 69.5199 29.0863C69.8613 29.0863 70.1126 29.2381 70.3117 29.5225H70.3307V27.6166V27.6118ZM69.6527 29.5605C69.0268 29.5605 68.9415 30.0583 68.9415 31.0208C68.9415 31.5613 68.9415 32.3436 69.6716 32.3436C70.3259 32.3436 70.3259 31.5328 70.3259 30.8074C70.3259 30.3285 70.2975 29.5605 69.6527 29.5605Z" fill="white"/>
<path d="M72.1371 29.1571V28.4696L72.7203 28.2041V29.1571H73.5026V29.598H72.7203V31.798C72.7203 32.0255 72.7203 32.3195 73.2513 32.3195C73.2939 32.3195 73.3888 32.3053 73.512 32.2911V32.7415C73.3224 32.7557 73.128 32.7984 72.9384 32.7984C72.3836 32.7984 72.1323 32.5708 72.1323 32.1583V29.6028H71.5397V29.1618H72.1323L72.1371 29.1571Z" fill="white"/>
<path d="M42.2815 35.1929H42.9358V35.8187H42.2815V35.1929ZM42.9026 40.3324H42.3194V36.7385H42.9026V40.3324Z" fill="white"/>
<path d="M45.5909 40.3325V37.8433C45.5909 37.4782 45.4913 37.1463 45.0219 37.1463C44.8465 37.1463 44.5999 37.2507 44.5146 37.3881C44.4055 37.5636 44.3771 37.7817 44.3771 37.9144V40.3325H43.7939V37.4877C43.7939 37.2412 43.7797 36.9899 43.756 36.7386H44.3771V37.189H44.3913C44.562 36.805 44.8654 36.6675 45.2874 36.6675C45.6146 36.6675 45.9939 36.805 46.1266 37.1321C46.3258 36.7481 46.6529 36.6675 46.98 36.6675C47.3546 36.6675 47.9615 36.7528 47.9615 37.6015V40.3325H47.3783V37.8433C47.3783 37.4782 47.2787 37.1463 46.8094 37.1463C46.5913 37.1463 46.5249 37.1511 46.3684 37.2838C46.1977 37.4261 46.1693 37.7817 46.1693 37.9192V40.3372H45.5861L45.5909 40.3325Z" fill="white"/>
<path d="M52.9066 35.1929V35.7618H51.5553V40.3324H50.901V35.7618H49.5498V35.1929H52.9066Z" fill="white"/>
<path d="M53.3191 38.7253C53.3191 39.7305 53.5893 39.9296 54.0445 39.9296C54.4428 39.9296 54.6514 39.6119 54.6703 39.2469H55.3104C55.3057 40.0434 54.8126 40.4085 54.0587 40.4085C53.3049 40.4085 52.6932 40.1809 52.6932 38.5926C52.6932 37.54 52.8165 36.6724 54.0587 36.6724C55.0828 36.6724 55.3389 37.2366 55.3389 38.4219V38.7253H53.3191ZM54.7225 38.2844C54.7225 37.2366 54.4285 37.1086 54.0018 37.1086C53.632 37.1086 53.3286 37.2887 53.3191 38.2844H54.7225Z" fill="white"/>
<path d="M58.1457 36.7386H58.7288V39.5834C58.7288 39.8347 58.7431 40.0812 58.762 40.3325H58.1409V39.8963H58.122C57.9276 40.2234 57.5862 40.4036 57.2116 40.4036C56.5858 40.4036 56.2444 40.0907 56.2444 39.4791V36.7386H56.8276V39.2278C56.8276 39.664 57.0267 39.9532 57.4392 39.9532C57.7521 39.9532 58.1409 39.7161 58.1409 39.1187V36.7339L58.1457 36.7386Z" fill="white"/>
<path d="M59.7624 36.7385V36.0463L60.3456 35.7808V36.7338H61.1279V37.1747H60.3456V39.3746C60.3456 39.6022 60.3456 39.8914 60.8766 39.8914C60.9193 39.8914 61.0141 39.8772 61.1374 39.863V40.3134C60.9478 40.3276 60.7534 40.3703 60.5637 40.3703C60.009 40.3703 59.7577 40.1427 59.7577 39.7302V37.1747H59.165V36.7338H59.7577L59.7624 36.7385Z" fill="white"/>
<path d="M61.4883 38.5877C61.4883 37.5351 61.6115 36.6675 62.8537 36.6675C64.096 36.6675 64.2192 37.5351 64.2192 38.5877C64.2192 40.176 63.6123 40.4036 62.8537 40.4036C62.0951 40.4036 61.4883 40.176 61.4883 38.5877ZM63.6123 38.3411C63.6123 37.3597 63.3089 37.1463 62.8585 37.1463C62.4081 37.1463 62.1046 37.3597 62.1046 38.3411C62.1046 39.5075 62.2516 39.9295 62.8585 39.9295C63.4654 39.9295 63.6123 39.5122 63.6123 38.3411Z" fill="white"/>
<path d="M65.6937 40.3324H65.1106V35.1929H65.6937V37.0989H65.7174C65.9166 36.8144 66.1679 36.6627 66.5045 36.6627C67.6661 36.6627 67.6945 37.6962 67.6945 38.5923C67.6945 40.1712 67.1114 40.3988 66.5329 40.3988C66.1536 40.3988 65.9071 40.2376 65.708 39.9009H65.6937V40.3276V40.3324ZM66.3528 39.9246C67.0877 39.9246 67.0877 39.1423 67.0877 38.6018C67.0877 37.6394 67.0023 37.1415 66.3765 37.1415C65.7506 37.1415 65.6985 37.9096 65.6985 38.3885C65.6985 38.9385 65.6368 39.9246 66.3528 39.9246Z" fill="white"/>
<path d="M70.4587 36.7386H71.0419V39.5834C71.0419 39.8347 71.0561 40.0812 71.0751 40.3325H70.454V39.8963H70.435C70.2453 40.2234 69.8992 40.4036 69.5247 40.4036C68.8988 40.4036 68.5575 40.0907 68.5575 39.4791V36.7386H69.1406V39.2278C69.1406 39.664 69.3398 39.9532 69.7523 39.9532C70.0652 39.9532 70.454 39.7161 70.454 39.1187V36.7339L70.4587 36.7386Z" fill="white"/>
<path d="M72.6112 37.2791H72.6254C72.8672 36.7291 73.1659 36.6675 73.7349 36.6675V37.2744C73.6258 37.2601 73.5263 37.2364 73.422 37.2364C72.7724 37.2364 72.6112 37.7295 72.6112 38.2131V40.3325H72.028V36.7386H72.6112V37.2791Z" fill="white"/>
<path d="M76.0913 36.7389H76.6745V40.6931C76.6745 41.4992 76.1387 41.6888 75.3517 41.6888C74.7543 41.6888 74.2138 41.3901 74.2612 40.7263H74.9155C74.925 41.063 75.1431 41.2479 75.4655 41.2479C75.8732 41.2479 76.0913 40.9966 76.0913 40.6268V39.8777H76.0723C75.9254 40.1621 75.5935 40.3281 75.2806 40.3281C74.3086 40.3281 74.1142 39.4889 74.1142 38.4221C74.1142 36.7721 74.9487 36.6631 75.2379 36.6631C75.6124 36.6631 75.9111 36.829 76.0771 37.1751H76.0913V36.7342V36.7389ZM75.4086 37.1514C74.7495 37.1514 74.7258 37.948 74.7258 38.4268C74.7258 39.579 74.9913 39.8492 75.4228 39.8492C76.1292 39.8492 76.1055 39.0147 76.1055 38.5169C76.1055 37.9859 76.1387 37.1514 75.4086 37.1514Z" fill="white"/>
<path d="M78.2343 38.7253C78.2343 39.7305 78.5046 39.9296 78.9598 39.9296C79.358 39.9296 79.5666 39.6119 79.5856 39.2469H80.2257C80.2162 40.0434 79.7278 40.4085 78.974 40.4085C78.2201 40.4085 77.6085 40.1809 77.6085 38.5926C77.6085 37.54 77.727 36.6724 78.974 36.6724C79.9981 36.6724 80.2541 37.2366 80.2541 38.4219V38.7253H78.2343ZM79.6378 38.2844C79.6378 37.2366 79.3438 37.1086 78.9171 37.1086C78.5473 37.1086 78.2391 37.2887 78.2343 38.2844H79.6378Z" fill="white"/>
<path d="M81.7429 37.2791H81.7571C81.9989 36.7291 82.2976 36.6675 82.8666 36.6675V37.2744C82.7622 37.2601 82.6579 37.2364 82.5536 37.2364C81.9041 37.2364 81.7429 37.7295 81.7429 38.2131V40.3325H81.1597V36.7386H81.7429V37.2791Z" fill="white"/>
<path d="M84.4501 35.1929H85.1471L86.1143 39.6496H86.1285L87.1621 35.1929H88.0108L88.9448 39.6496H88.959L90.0021 35.1929H90.6848L89.3241 40.3324H88.5276L87.5509 35.8756H87.5367L86.4983 40.3324H85.7018L84.4501 35.1929Z" fill="white"/>
<path d="M92.6525 39.8109H92.6382C92.4581 40.2234 92.1831 40.4036 91.7327 40.4036C90.9693 40.4036 90.7512 39.9105 90.7512 39.223C90.7512 38.1325 91.818 38.0851 92.6382 38.1041C92.6525 37.6252 92.6572 37.1084 92.0314 37.1084C91.6378 37.1084 91.434 37.3739 91.4671 37.7485H90.8318C90.8603 36.9425 91.287 36.6675 92.0503 36.6675C92.9749 36.6675 93.2167 37.1463 93.2167 37.7485V39.479C93.2167 39.7635 93.2451 40.0575 93.2878 40.3325H92.6477V39.8157L92.6525 39.8109ZM91.3391 39.2657C91.3391 39.6165 91.5098 39.9295 91.8986 39.9295C92.2542 39.9295 92.6951 39.7114 92.6382 38.5498C92.0835 38.5545 91.3344 38.5071 91.3344 39.2704L91.3391 39.2657Z" fill="white"/>
<path d="M94.8477 40.3324H94.2645V35.1929H94.8477V40.3324Z" fill="white"/>
<path d="M97.6687 35.1929H98.2519V40.3324H97.6687V39.9057H97.6545C97.4554 40.2423 97.2088 40.4035 96.8295 40.4035C96.2558 40.4035 95.6679 40.1759 95.6679 38.5971C95.6679 37.701 95.6964 36.6674 96.858 36.6674C97.1993 36.6674 97.4459 36.8191 97.645 37.1036H97.6687V35.1976V35.1929ZM96.9955 37.1415C96.3696 37.1415 96.2843 37.6394 96.2843 38.6018C96.2843 39.1423 96.2843 39.9246 97.0192 39.9246C97.6735 39.9246 97.6735 39.1139 97.6735 38.3885C97.6735 37.9096 97.645 37.1415 96.9955 37.1415Z" fill="white"/>
<path d="M18.3287 9.42429C18.1011 8.99757 17.9257 8.40018 17.5511 8.18208C17.1197 7.91183 16.8589 7.71744 16.7736 7.59891C16.5697 7.30969 16.5318 7.23857 16.3421 6.96358C16.0956 6.67436 15.8206 6.54161 15.5219 6.56057C15.2232 6.58428 14.6021 6.24765 13.9715 5.98214C12.3215 5.26147 11.2785 5.23303 11.0888 5.33733C10.7427 5.53172 10.4013 5.53647 10.0552 5.35156C9.97935 5.31837 9.81815 5.30414 9.57635 5.30414C8.35311 5.31837 7.27684 5.61707 6.3523 6.19076C6.3523 6.19076 5.18595 6.52264 4.96786 6.92565C4.74976 7.32866 3.73039 7.6558 3.51229 7.97821C3.2942 8.30061 1.32658 10.5717 1.32658 10.5717C2.90542 10.8799 2.45026 8.78896 4.23771 8.78896C4.4558 8.78896 5.23337 8.26268 5.23337 8.26268C5.8924 7.51357 6.87858 6.94936 8.19665 6.55583C8.56646 6.44678 8.95999 6.39463 9.37248 6.38989C10.7806 6.37567 12.8336 6.53687 14.7396 7.83597C15.2896 8.22475 15.6926 9.59023 16.7499 10.9652C17.1102 11.4583 17.2761 12.1031 17.2429 12.8901C17.2192 13.4591 17.2761 14.6065 17.0011 15.6543C16.783 16.4461 16.2331 17.1904 15.5977 18.1577C15.0904 18.921 14.5404 19.3098 14.1137 19.727C13.6823 20.1442 13.2935 20.3529 12.9426 20.3576C12.8336 20.3576 12.7388 20.3434 12.6487 20.3102C12.6202 20.296 12.4069 20.2533 12.0133 20.1917C11.6957 20.1442 11.3638 20.021 11.0224 19.8171C10.6763 19.6132 10.4772 19.1012 10.4203 18.2762C10.4013 18.0012 10.4108 17.3991 10.4487 16.4745C10.4677 16.0431 10.4203 15.4552 10.316 14.6966C10.2117 13.9427 10.0979 13.4449 9.98884 13.2078C9.87505 12.9707 9.90349 11.9656 10.0694 10.1924C10.0694 10.1592 10.1026 9.94108 10.1643 9.54756C10.2069 9.23938 10.2354 8.97387 10.2449 8.74629C10.2781 7.99243 10.1121 7.51831 9.75177 7.3334C9.57161 7.23383 9.39618 7.18168 9.23024 7.18642C8.5712 7.1959 8.05441 7.72218 7.67037 8.77474C7.59925 8.98335 7.56132 9.2299 7.5471 9.52385C7.50917 10.3678 7.99751 10.3962 8.31518 10.7518C8.4906 10.9557 8.28673 12.2169 8.39104 13.4022C8.4906 14.6871 8.55224 15.3651 8.58069 15.4362C8.67551 15.6922 8.71818 16.1237 8.7087 16.7258C8.7087 17.309 8.67077 17.7547 8.58069 18.0676C8.56172 18.1529 8.55224 18.2383 8.5475 18.3236C8.54276 18.4801 8.56646 18.7361 8.6281 19.0964C8.68974 19.4568 8.71344 19.7412 8.7087 19.9451C8.69922 20.1348 8.64232 20.424 8.53327 20.808C8.42423 21.1968 8.36733 21.4765 8.36259 21.6472C8.34837 22.0265 8.41474 22.5718 8.58543 22.8468C8.78456 23.1692 9.10697 22.733 9.51945 22.7282C9.80867 22.7282 10.0694 23.2403 10.3207 23.0838C10.4772 22.9795 10.6479 22.9416 10.828 22.9748C11.1789 23.0032 11.525 22.7899 11.8474 22.7662C12.753 22.7045 13.8814 22.1925 15.2374 21.2347C17.3615 19.727 18.2196 16.8918 18.7696 14.1608C18.9166 13.4212 19.1489 12.819 19.1726 12.2501C19.2058 11.4583 18.9261 10.5195 18.3287 9.42429ZM35.0795 12.141C34.923 12.0604 34.7571 12.0225 34.5769 12.0225C34.1645 12.0415 33.349 12.1932 32.1257 12.4777C30.9546 12.7384 30.0016 12.985 29.281 13.2268C27.2944 13.7815 25.7914 14.1798 24.7673 14.4216C24.26 14.6302 23.9565 14.7297 23.857 14.7155C23.7527 14.7013 23.5251 14.7392 23.1742 14.8246C22.7807 14.9099 22.5389 14.9621 22.4394 14.9763C21.9795 15.0237 21.7519 14.9147 21.7614 14.6586C21.7614 14.5922 21.7851 14.5164 21.823 14.431C22.2355 13.5302 22.5484 13.0988 22.7902 12.5393C22.8139 12.5108 22.8945 12.3686 23.0273 12.1078C23.1173 11.9277 23.2359 11.8044 23.3686 11.738C23.7479 11.5816 24.0277 11.4915 24.1984 11.463C25.0138 11.1122 25.725 10.8087 26.3414 10.5385C27.0289 10.3014 27.4271 10.1734 27.5362 10.1592C27.9013 10.0596 28.1715 9.97427 28.3469 9.90315C28.5887 9.86048 28.7737 9.78936 28.8922 9.69454C29.0107 9.59971 29.1719 9.52859 29.3758 9.48592C29.5797 9.44325 29.8831 9.32946 30.2909 9.14929C30.6227 9.0118 30.8693 8.94068 31.0352 8.93594C31.2012 8.93594 31.3813 8.88853 31.5852 8.79844C31.7891 8.70836 31.9218 8.65621 31.9835 8.64198C32.3486 8.57086 32.5761 8.53293 32.6615 8.53293C32.9412 8.53293 33.164 8.60879 33.3395 8.77C33.4675 8.87904 33.6002 9.04025 33.7377 9.2536C33.8041 9.37688 33.8989 9.12085 33.9985 9.0924C34.0839 9.06395 34.1787 8.97861 34.283 8.83637C34.3825 8.69414 34.4394 8.54716 34.4442 8.39544C34.4537 8.12519 34.2972 7.92131 33.9701 7.78856C33.6429 7.6558 33.3253 7.59417 33.0266 7.59417C32.6757 7.59417 32.0925 7.72692 31.2865 7.98295C30.7697 8.13941 30.2577 8.30061 29.7409 8.4713C29.0913 8.62776 28.7357 8.74629 28.6646 8.82215C28.5935 8.89801 28.3849 9.00706 28.034 9.15404C27.6832 9.30101 27.3987 9.38162 27.1806 9.40058C26.6306 9.50015 26.2418 9.59023 26.0095 9.65661C25.3268 9.79885 24.8764 9.98376 24.663 10.2019C24.535 10.3251 24.3927 10.401 24.2268 10.4199C24.0609 10.4437 23.9139 10.4626 23.7811 10.4768C23.3639 10.6049 23.1126 10.5954 23.0225 10.4437C22.8518 10.145 22.5626 10.0027 22.1501 10.0027C21.4579 10.0122 21.1118 10.2587 21.1023 10.7518C21.1023 11.0079 21.0407 11.2544 20.9079 11.4867C20.7609 11.8423 20.6756 12.1363 20.6519 12.3639C20.6092 12.7432 20.6045 12.9518 20.6282 12.9755C20.7041 13.2078 20.6187 13.35 20.3722 13.4069C20.2868 13.4212 20.2299 13.4496 20.2062 13.4875C20.1541 13.5824 20.1019 13.6819 20.0498 13.7768C19.8174 14.1181 19.7416 14.3457 19.8222 14.45C19.9455 14.6397 19.9597 14.8862 19.8649 15.1849C19.8459 15.2797 19.8269 15.3698 19.7985 15.4599C19.77 15.55 19.6894 15.6258 19.5519 15.697C19.2817 15.8345 19.1347 16.1237 19.1157 16.5599C19.111 16.7116 19.1394 16.8301 19.2106 16.9249C19.3244 17.0861 19.386 17.2047 19.3955 17.2711C19.3955 17.3137 19.3765 17.4465 19.3433 17.6788C19.2912 17.9917 19.2817 18.5986 19.3054 19.4947C19.3196 20.0542 19.4666 20.5425 19.7511 20.9597C20.2157 21.6472 20.979 21.9838 22.0316 21.9744C22.8803 21.9649 24.0324 21.7895 25.4832 21.4433C26.403 21.2015 27.3134 20.9645 28.2189 20.7369C29.3047 20.5093 29.9021 20.3766 30.0159 20.3481C30.1249 20.3197 30.234 20.2343 30.343 20.0874C30.4521 19.9451 30.509 19.8124 30.5137 19.6891C30.5137 19.6512 30.7602 19.6275 30.7413 19.599C30.049 18.6223 32.2774 18.5749 30.8977 18.3236C30.5137 18.262 29.2952 18.3236 29.0344 18.4896C28.8068 18.7219 28.6931 18.8878 28.6883 18.9826C28.6362 19.0253 28.1194 19.1675 27.1379 19.4094C26.1517 19.6512 25.5638 19.7887 25.3694 19.8171C24.6156 19.9072 24.2742 19.9593 24.3453 19.9736C24.1652 19.9641 23.9376 20.0068 23.6673 20.1016C23.4966 20.1727 23.1932 20.1774 22.757 20.1111C22.3019 20.0352 21.4295 20.2248 21.2398 20.0636L20.889 19.7412C20.8321 19.6606 20.8131 19.471 20.8415 19.1723C20.87 18.7645 20.9553 18.224 21.0928 17.5603C21.2446 16.8254 21.3583 16.8111 21.4721 16.7163C21.6476 16.5788 22.4868 16.2232 23.985 15.6495C25.635 15.0047 26.8535 14.6017 27.6452 14.4453C28.1573 14.3457 28.4987 14.2604 28.6741 14.1892C28.7737 14.1466 28.8021 14.1181 28.7689 14.1086C28.8068 14.1086 28.84 14.1086 28.878 14.1086C29.0344 14.1229 29.3331 14.0565 29.7741 13.9142C30.1059 13.8005 30.4378 13.6962 30.7697 13.5966C32.396 13.1699 33.4675 12.9518 33.9748 12.947C34.2545 12.947 34.4442 12.985 34.5485 13.0656C34.7713 13.241 34.9088 13.3263 34.9562 13.3263L35.2407 12.6151C35.2929 12.5583 35.3166 12.4966 35.3213 12.4302C35.3213 12.3212 35.2502 12.2264 35.0985 12.1458L35.0795 12.141ZM63.2615 17.5508C63.1335 17.1383 63.0718 16.5456 62.0762 13.1462C61.6732 11.7712 61.5262 10.1687 60.5874 6.32351C59.8336 3.27015 60.0374 3.75376 59.587 2.56845C58.9896 1.05599 57.7142 0.302129 56.9983 0.311612C56.6617 0.311612 56.4483 0.529709 55.8746 0.961163C55.5238 1.22193 55.3341 1.83355 55.2914 2.79128C55.263 3.50721 55.0449 4.94381 55.1682 5.73086C55.1919 6.12912 55.0733 6.82608 54.8173 9.7941C54.7415 10.6618 54.7272 11.2449 54.7747 11.5484C54.8031 11.7807 54.7604 12.3686 54.6466 13.3026C54.3859 15.3414 53.9544 16.2801 53.3665 16.1237C53.2669 16.081 53.1057 15.4362 52.8782 14.2035C52.6553 12.8285 52.4183 11.463 52.1764 10.1118C51.8066 8.12993 51.5364 7.58943 51.3704 7.11056C51.745 7.00625 52.0105 6.93039 52.1101 6.91143C52.4799 6.84505 52.1006 7.38081 52.4751 7.31443C52.9161 7.17694 54.329 6.72178 54.3337 6.40885C54.3479 5.92051 54.2294 5.2757 53.9592 5.28518C53.8786 5.28518 53.8169 5.33259 53.7363 5.37526C53.6842 5.39897 53.6415 5.41319 53.4424 5.46535C52.8924 5.60758 52.039 5.80672 51.0717 6.02955C50.7967 5.10975 50.498 4.54554 50.1804 4.35115C49.6778 4.03349 49.3032 3.87229 49.0662 3.87703C48.6063 3.88177 48.5304 4.06668 48.336 4.43175C48.1416 4.79683 48.2554 5.01967 48.0848 5.39897C47.9804 5.56491 48.0184 5.46535 48.0136 5.655C48.0136 5.75456 47.9283 6.20972 47.8714 6.76919C46.5438 7.07263 45.3491 7.35236 44.709 7.52305C43.1776 7.8739 42.0823 8.01614 41.3854 7.91183C41.1768 7.88812 40.9634 7.90235 40.7406 7.95924C40.4798 8.01614 40.3328 8.04458 40.3044 8.04458C39.7259 8.04933 38.7066 8.38595 38.6781 7.94028C38.6307 7.14375 38.2561 6.63643 37.6777 6.64118C37.4454 6.64118 37.1988 6.79764 36.9333 7.09634C36.6394 7.44245 36.4877 7.74114 36.4782 7.99717C36.4734 8.12044 36.4971 8.23424 36.554 8.34328C36.6536 8.53293 36.6536 8.40492 36.5209 8.76525C36.3834 9.12559 36.2079 9.32472 35.9898 9.35317C35.2834 9.45748 34.2261 9.68506 32.8179 10.0454C30.8598 10.529 29.7693 10.9557 29.5323 11.3255C29.39 11.5436 29.2999 12.1126 29.2952 12.2216C29.2905 12.3591 29.4659 12.4445 29.831 12.4777C29.8404 12.4777 29.8499 12.2548 30.2103 12.3354C30.3667 12.3591 30.4426 12.2975 30.5279 12.2453C30.6133 12.1884 30.8977 12.0794 30.9357 11.9988C30.9451 11.9703 30.9594 11.9561 30.9594 11.9277C30.9689 11.9134 30.9783 11.8945 30.9926 11.8803C31.1538 11.7428 31.8697 11.501 33.1309 11.1643C33.4485 11.079 34.283 10.8561 35.6295 10.5006C35.8144 10.4579 35.9661 10.4342 36.0847 10.4342C36.2885 10.4342 36.4071 10.5717 36.4308 10.8561C36.5303 11.3587 36.6204 11.7522 36.7105 12.0367C36.8575 13.1794 36.9618 14.431 37.0234 15.2465C37.0519 15.697 37.0566 16.2849 37.0376 16.4603C37.0282 16.6926 37.0614 16.868 37.142 16.9913C37.3695 17.6693 37.5307 18.243 37.6303 18.7219C37.7204 19.1296 37.8768 19.5137 38.0902 19.8787C38.2135 20.0968 38.4553 20.4524 38.8061 20.9503C39.0337 21.2727 39.2423 21.4576 39.4367 21.4955C39.5552 21.5097 39.6785 21.5192 39.7971 21.5334C39.8777 21.5856 39.9677 21.6425 40.0626 21.6946C40.1669 21.7468 40.3044 21.7468 40.4608 21.6946C41.1246 21.4576 42.2388 21.4102 42.2625 20.8791C42.272 20.7037 41.4707 20.168 41.4091 19.9499C41.338 19.6796 40.5556 19.6132 39.8682 18.9352C39.1807 18.2572 39.1997 17.4085 39.1096 17.2047C38.9531 16.8823 38.8061 15.953 38.6734 14.9668C38.5406 13.9806 38.4648 12.7811 38.4553 11.9087C38.4553 11.6906 38.4553 11.4962 38.46 11.316C38.479 10.8277 38.5548 10.4911 38.6829 10.3156C38.7208 10.2635 38.863 10.1687 39.1096 10.0454C39.2803 9.96479 39.7212 9.88419 40.1195 9.80833C40.2285 9.79411 40.6078 9.74669 41.2574 9.67557C42.2483 9.55704 43.8271 9.19671 45.9702 8.65146C46.4538 8.52819 47.0559 8.36225 47.7007 8.18208C47.5917 8.97861 47.4162 10.2256 47.2645 10.9273C47.2124 11.207 47.1175 12.1078 46.8615 13.6345C46.705 14.5022 46.7145 15.147 46.5201 15.5689C46.4111 15.806 46.321 16.0857 46.2499 16.4129C46.2214 16.5788 45.6857 19.2434 45.4676 19.5848L45.221 21.1304C45.221 21.1304 44.6379 22.3157 44.3486 22.1451C44.0547 21.9744 43.9172 19.9736 43.9172 19.9736C43.9172 19.9736 43.59 18.9068 43.59 18.2288C43.59 17.5508 43.6944 17.3754 43.5474 17.034C43.4004 16.6974 43.5474 16.1853 43.5474 16.1853L43.3293 15.934L43.0401 18.0486C43.0401 18.0486 42.9642 18.0771 42.9642 19.2624C42.9642 20.4477 43.7655 23.8329 43.7655 23.8329C43.7797 24.1127 44.3297 24.3118 44.4624 24.601C44.5952 24.8902 44.4624 24.7006 44.6331 24.7006C44.7232 24.7006 44.9034 24.8191 44.9982 24.7006C45.1973 24.4635 46.5154 24.7195 46.8994 22.6761C47.5253 19.4662 47.8619 17.7689 47.9093 17.5792C48.3313 16.0099 48.6442 14.4168 48.8481 12.8001C48.9666 11.866 49.0852 10.9273 49.2037 9.9885C49.308 9.40058 49.4834 9.16826 49.7394 9.28205C50.0334 9.39584 50.3037 9.62816 50.5455 9.97427C50.792 10.3204 50.9153 10.6333 50.9248 10.913C50.92 11.079 51.0575 11.4251 51.3467 11.9609C51.6359 12.4966 51.7687 12.947 51.7545 13.3216C51.7403 13.6013 51.8161 13.9474 51.9821 14.3552C52.1433 14.7629 52.1907 15.1422 52.1148 15.4931C52.0579 16.4745 52.3803 17.1051 52.4704 17.3848C52.4609 17.5697 52.5273 17.8684 52.6601 18.2762C52.7928 18.6839 52.845 18.7266 52.8118 18.9874C52.7786 19.2434 53.0631 19.3714 53.1626 19.6464C53.2622 19.9261 53.3049 20.2154 53.2906 20.5235C53.21 22.5575 54.5613 21.0119 55.1634 21.377C55.6992 21.3722 55.6423 20.8175 56.1069 19.7081C56.216 19.452 55.8414 20.3102 55.8509 15.659C55.8604 6.96358 55.8746 3.39816 56.6522 3.38868C57.0125 3.38868 57.2638 3.51669 57.7759 4.63089C58.0651 5.32785 58.0651 5.64551 58.378 6.31877C59.0181 8.15837 58.7668 7.40452 59.2219 8.96439C59.4969 9.9885 59.5965 10.5859 59.5064 10.7471C59.5396 10.8846 59.606 11.0505 59.6961 11.2354C59.9094 11.8186 59.9853 12.1315 59.9236 12.179C59.9426 12.2738 59.9853 12.4018 60.0611 12.563C60.1797 13.0988 60.2129 13.4354 60.1702 13.5776C60.2081 13.6724 60.3077 13.7673 60.3646 13.9285C60.4452 14.1466 60.5116 14.1229 60.6064 14.3125C60.6538 14.4026 60.8814 14.6302 60.8719 14.9431C60.8577 15.2608 60.9667 15.5832 61.1137 15.8487C61.2607 16.1142 61.2986 16.3133 61.2986 16.5124C61.2986 16.7116 61.6732 16.9155 61.8059 17.1241C62.0714 17.9159 61.7917 17.8969 61.8201 18.2715L61.8344 18.4896L62.427 19.5042C62.427 19.5042 63.6455 21.5334 64.5227 22.1261C65.395 22.7187 65.1769 22.8041 65.836 23.0554C66.4903 23.3114 67.723 24.4114 68.6001 24.6674C69.4725 24.9234 70.2027 25.1747 70.6389 25.1747C71.0751 25.1747 71.2932 24.9187 71.2932 24.9187C69.4014 24.1553 67.2631 22.9937 66.0588 22.0265C64.9541 21.1352 63.636 18.7408 63.2662 17.5555L63.2615 17.5508ZM55.1587 21.3627C55.0212 21.3627 55.2962 21.4576 55.1587 21.3627V21.3627ZM78.7654 13.4259C78.7985 13.1367 78.6184 12.6104 78.2249 11.8423C77.9878 11.3919 77.7223 11.1738 77.4331 11.1928C77.2956 11.2117 77.2576 11.2734 77.3145 11.3777C77.5184 11.738 77.6417 11.9893 77.6891 12.1221C77.9451 12.9518 78.0637 13.7388 78.0352 14.4785C78.021 14.8435 77.9641 15.1707 77.8693 15.4599C77.7602 15.8107 77.6369 16.2754 77.5089 16.8491C77.4188 17.2616 77.3288 17.5555 77.2387 17.7404C76.39 19.3572 75.1667 20.3102 73.5737 20.6041C72.5259 20.7985 71.8194 20.8981 71.4591 20.9028C71.3358 20.9028 71.0893 20.8602 70.7195 20.7748C70.179 20.6468 69.5389 20.2912 68.7993 19.7081C66.7131 18.096 67.4622 19.3335 66.4002 16.4461C66.2817 16.1142 66.2248 15.7586 66.239 15.3793C66.2532 14.9858 66.4286 14.303 66.77 13.3263C66.8364 13.1272 66.7178 13.0371 66.789 12.8475C66.8553 12.6578 66.9407 12.5298 67.0403 12.4682C67.4195 12.0557 67.4764 11.5152 67.704 11.226C68.1165 10.8419 68.7945 10.8324 68.8656 10.8324C68.913 10.8324 69.3919 11.1074 70.3022 11.6527C71.26 12.2169 71.772 11.7333 72.175 11.8518C72.5828 11.9656 72.6112 11.6053 72.744 11.6337C72.9336 11.6906 73.1802 11.5436 73.256 11.5436C73.2797 11.5152 73.8676 11.2354 73.9008 11.2212C73.8582 10.7661 73.0616 11.226 72.3742 10.8704C71.791 10.5764 71.5919 11.1217 71.4164 10.8704C71.369 10.7945 71.2078 10.6238 70.9281 10.3536C70.7052 10.145 70.5962 9.9885 70.6009 9.87945C70.6009 9.80359 70.6721 9.75143 70.8048 9.71824C71.0229 9.67083 71.1604 9.6329 71.2078 9.59971C71.3832 9.50489 71.6298 9.45748 71.9569 9.45274C72.4073 9.44799 72.8009 9.54756 73.1422 9.75618C73.3082 9.86048 73.6496 10.2208 74.1711 10.8324C74.5741 11.3255 74.9297 11.5673 75.2331 11.5436C75.584 11.5247 75.8542 11.3303 76.0344 10.9652C76.1909 10.6428 76.262 10.2587 76.243 9.80359C76.2146 9.29153 75.9965 8.75577 75.5935 8.20105C75.1004 7.54201 74.4603 7.04892 73.6733 6.72652C72.7914 6.37567 72.0612 6.20024 71.4781 6.20972C70.9565 6.21446 70.4492 6.37567 69.9514 6.68385C69.5531 6.93039 69.2876 7.17219 69.1454 7.39978C69.0932 7.50882 69.0363 7.61313 68.9699 7.72218C68.8562 7.817 68.7234 7.98769 68.5717 8.23898C68.4152 8.49026 68.2588 8.6325 68.1023 8.66569C67.8605 8.7131 66.9359 9.10188 66.1963 10.0359C65.4093 11.0316 65.0726 11.9466 64.6886 12.7858C64.2809 13.6867 64.2429 14.6254 64.205 15.6116C64.1244 17.7025 64.9494 19.4283 66.6799 20.7796C67.8795 21.7183 69.3682 22.1782 71.1462 22.1545C72.2461 22.1403 73.3224 21.9459 74.3655 21.5666C75.3232 21.2205 76.0344 20.8033 76.499 20.3149C77.0395 19.746 77.4094 19.3098 77.6037 19.0063C77.7175 18.8214 77.8124 18.5891 77.8835 18.2999C78.1632 17.3137 78.4003 16.4698 78.5947 15.7681C78.68 14.7961 78.7322 14.0186 78.7559 13.4259H78.7654ZM69.2212 8.01614C69.4251 7.78856 69.61 7.62261 69.7854 7.53253C70.0794 7.45193 70.2785 7.42822 70.3876 7.45667C70.691 7.36185 70.9091 7.28124 71.0324 7.21961C71.3975 7.18642 71.5776 7.29073 71.5634 7.53253C71.5492 7.83597 71.241 8.00665 70.6389 8.04458C70.1363 8.18682 69.7902 8.31484 69.6053 8.41914C69.4962 8.46656 69.4014 8.49026 69.3303 8.49026C69.1738 8.49026 69.1359 8.3338 69.2212 8.01614ZM89.8362 19.9783C89.7176 20.0731 89.0254 20.1016 87.7595 20.0636C87.3518 20.0542 86.9535 20.0068 86.56 19.9119C86.2423 19.8455 86.0527 19.8218 85.9958 19.8361C85.9104 19.8503 85.7966 19.8361 85.6591 19.7981C85.46 19.746 85.2751 19.7128 85.0949 19.7033C85.0285 19.7033 83.8764 19.8787 81.6385 20.2343C81.5437 20.2486 81.4584 20.258 81.3825 20.258C81.1739 20.258 80.8657 20.1964 80.7756 20.0636C80.7614 20.0636 80.6998 19.9024 80.5765 19.5753C80.5528 19.5089 80.5481 19.4188 80.5528 19.3098C80.5623 19.1201 80.6192 18.8404 80.733 18.4706C80.842 18.1861 81.1407 17.5366 81.2261 17.2568C81.6812 16.0573 82.0842 15.0474 82.4351 14.2319C83.0562 12.672 84.123 9.72299 84.1799 9.40058C84.2083 9.23464 84.379 8.67043 84.6919 7.69847C84.9669 6.8166 85.5359 6.08645 85.5453 5.84465C85.5548 5.64077 85.076 5.71189 84.9527 5.71663C84.8436 5.71663 84.4074 5.66922 84.2794 5.75456C84.1562 5.8399 84.0376 6.05326 83.9238 6.39937C83.8859 6.51316 83.7626 6.97306 83.554 7.77433C83.17 9.10188 82.1648 12.0604 81.9894 12.6199C81.4584 14.3267 80.9084 15.55 80.714 15.9056C80.5528 16.3181 80.4485 16.6215 80.4011 16.8254C80.3632 16.8918 80.292 17.1336 80.1877 17.5413C80.1119 17.8827 79.8511 18.0534 79.7705 18.0581C79.7468 18.0581 79.9981 17.9822 79.8701 17.9301C79.7373 17.8779 79.8132 17.987 79.6757 17.9775C79.2774 17.9301 78.8365 18.518 78.3481 19.746C78.1869 20.1442 78.0968 20.4761 78.0874 20.7464C78.0779 21.0024 78.1395 21.23 78.277 21.4149C78.4904 21.7658 78.6279 21.9933 78.6848 22.1024C78.7085 22.1308 78.7843 22.1403 78.9171 22.1403C79.2442 22.1403 80.3394 22.0407 81.264 21.8701C82.2549 21.6804 82.8049 21.5808 82.9092 21.5666C83.3501 21.4671 83.5967 21.3912 83.6583 21.3343C84.3221 21.2727 84.9053 21.2395 85.4078 21.2347C85.863 21.2015 86.56 21.249 87.5035 21.3722C88.4991 21.4955 88.9875 21.5571 88.9685 21.5571C89.3194 21.5571 89.6181 21.3106 89.8646 20.8317C89.9784 20.6279 90.0353 20.4287 90.0448 20.2391C90.0543 19.9546 89.9831 19.8645 89.8267 19.9783H89.8362ZM99.6221 10.2825C99.4277 9.91738 98.8066 9.10188 98.4842 8.91223C98.1144 8.67991 97.8915 8.51397 97.8204 8.4144C97.645 8.16786 97.6545 8.35751 97.4933 8.12519C97.2799 7.87864 97.0571 7.54675 96.8011 7.56098C96.545 7.57994 96.1562 7.2528 95.6157 7.02522C94.2029 6.40885 93.3874 6.68859 93.2309 6.77867C92.9369 6.94462 92.7283 6.69333 92.3443 6.78815C92.2732 6.80712 92.1404 6.74548 91.9318 6.75022C90.884 6.76445 89.9642 6.71704 89.1677 7.21487C89.1677 7.21487 88.8358 7.56098 87.6979 7.90709C86.6026 8.23898 86.9962 8.57561 86.1333 8.86482C85.9199 8.93594 85.4078 9.86522 85.9246 9.76566L88.2289 8.86956C88.2573 8.84111 89.6655 8.36699 90.737 8.04458C91.0547 7.94976 91.3913 7.90235 91.7469 7.90235C92.9512 7.88812 94.402 7.67477 96.033 8.78896C96.5024 9.12085 97.3605 10.4247 98.2708 11.6053C98.579 12.0272 98.3325 12.582 98.304 13.26C98.2851 13.7483 98.5458 14.4358 98.3088 15.3366C98.1239 16.0146 98.4036 16.9818 97.8584 17.8163C97.4222 18.4706 96.161 19.196 95.7959 19.5563C95.4261 19.9119 95.1084 19.6606 94.8097 19.6606C94.7197 19.6606 94.6343 19.6464 94.5537 19.618C94.53 19.6037 94.3451 19.5706 94.0085 19.5137C93.7382 19.471 93.4348 19.7981 93.1408 19.6275C92.8469 19.452 92.6951 18.5796 92.6477 17.8732C92.6288 17.6361 92.6382 17.1241 92.6714 16.3275C92.6857 15.9577 92.6477 15.4504 92.5576 14.8056C92.4676 14.1561 92.7615 13.7293 92.6619 13.5255C92.5671 13.3216 92.202 12.4634 92.3443 10.9462C92.3443 10.9178 92.3727 10.7329 92.4249 10.3915C92.4628 10.126 92.4865 9.89841 92.496 9.70402C92.5245 9.05447 92.3822 8.65146 92.074 8.495C91.9223 8.40966 91.5478 8.86956 91.4055 8.86956C90.8413 8.8743 90.6185 8.82689 90.2913 9.72773C90.2297 9.90315 90.6991 10.1165 90.6896 10.3678C90.6611 11.0885 90.6659 11.6005 90.9456 11.904C91.0926 12.0794 91.2159 12.672 91.3012 13.6867C91.3866 14.7914 91.0499 15.3746 91.0784 15.4362C91.159 15.6543 91.1969 16.0241 91.1874 16.5409C91.1874 17.0387 91.1542 17.4228 91.0784 17.6883C91.0642 17.7594 91.0547 17.8353 91.0499 17.9111C91.0452 18.0439 91.0689 18.262 91.121 18.5749C91.1732 18.8831 91.1969 19.1249 91.1874 19.3003C91.1827 19.4615 91.1305 19.7081 91.0404 20.0399C90.9456 20.3718 90.903 20.6136 90.8935 20.7606C90.7702 22.1735 91.7327 22.3916 91.3249 21.7468C91.1542 21.4718 91.5288 22.0123 91.8844 22.0076C92.1309 22.0076 92.3585 22.1545 92.5719 22.017C92.7094 21.927 92.9559 21.927 93.1124 21.9554C93.4111 21.9791 93.6055 21.7373 93.8804 21.7183C94.6533 21.6662 95.777 21.4623 96.7821 20.405C99.2997 17.7547 98.0765 20.0636 99.7833 14.9953C99.9919 14.3884 99.9398 13.1936 99.9587 12.7052C99.9872 12.0272 100.134 11.2165 99.6221 10.2777V10.2825ZM72.1561 25.1889C71.7199 25.3407 71.938 25.72 71.938 25.72C71.938 25.72 72.7392 25.7958 73.0285 26.1751C73.3224 26.5544 74.0478 26.4785 74.484 26.4785C74.9202 26.4785 74.484 25.9475 74.484 25.9475C73.6116 25.72 72.1513 25.1889 72.1513 25.1889H72.1561ZM3.24204 10.3868C2.86749 10.8751 1.47356 11.8091 1.03736 11.8091C0.60117 11.8091 0.383072 12.5345 0.0891149 13.1888C-0.200101 13.8431 0.307212 14.0612 0.307212 14.0612C0.307212 14.0612 1.25546 13.772 1.54468 12.9707C1.83389 12.1695 3.21834 10.8656 3.21834 10.8656C3.00024 11.591 3.77306 9.69454 3.2373 10.3915L3.24204 10.3868Z" fill="white"/>
<path d="M40.1242 1.23145H39.8777V40.3325H40.1242V1.23145Z" fill="white"/>
</svg>
